<?xml version="1.0" encoding="UTF-8" standalone="no"?>
<svg
   xmlns:dc="http://purl.org/dc/elements/1.1/"
   xmlns:cc="http://creativecommons.org/ns#"
   xmlns:rdf="http://www.w3.org/1999/02/22-rdf-syntax-ns#"
   xmlns:svg="http://www.w3.org/2000/svg"
   xmlns="http://www.w3.org/2000/svg"
   xmlns:sodipodi="http://sodipodi.sourceforge.net/DTD/sodipodi-0.dtd"
   xmlns:inkscape="http://www.inkscape.org/namespaces/inkscape"
   height="95"
   viewBox="0 0 71.249993 71.249998"
   width="95"
   version="1.1"
   id="svg22"
   sodipodi:docname="heater_off.svg"
   inkscape:version="1.0.1 (3bc2e813f5, 2020-09-07)"
   inkscape:export-filename="C:\TouchGFXProjects\frogHop\images\heater_off.png"
   inkscape:export-xdpi="96"
   inkscape:export-ydpi="96">
  <metadata
     id="metadata28">
    <rdf:RDF>
      <cc:Work
         rdf:about="">
        <dc:format>image/svg+xml</dc:format>
        <dc:type
           rdf:resource="http://purl.org/dc/dcmitype/StillImage" />
        <dc:title></dc:title>
      </cc:Work>
    </rdf:RDF>
  </metadata>
  <defs
     id="defs26" />
  <sodipodi:namedview
     pagecolor="#ffffff"
     bordercolor="#666666"
     borderopacity="1"
     objecttolerance="10"
     gridtolerance="10"
     guidetolerance="10"
     inkscape:pageopacity="0"
     inkscape:pageshadow="2"
     inkscape:window-width="1920"
     inkscape:window-height="1001"
     id="namedview24"
     showgrid="false"
     units="px"
     fit-margin-top="0"
     fit-margin-left="0"
     fit-margin-right="0"
     fit-margin-bottom="0"
     inkscape:zoom="6.8777182"
     inkscape:cx="47.434347"
     inkscape:cy="45.896446"
     inkscape:window-x="-9"
     inkscape:window-y="-9"
     inkscape:window-maximized="1"
     inkscape:current-layer="svg22"
     inkscape:document-rotation="0" />
  <path
     d="m 64.539776,47.84397 v -7.176513 c 0,-1.321197 1.070147,-2.392171 2.390322,-2.392171 h 1.194887 c 1.320175,0 2.390321,1.070974 2.390321,2.392171 v 7.176513 c 0,1.321197 -1.070146,2.392172 -2.390321,2.392172 h -1.194887 c -1.320175,0 -2.390322,-1.070975 -2.390322,-2.392172 z m 0,0"
     fill="#545c60"
     id="path6-5"
     style="stroke-width:0.140114" />
  <path
     d="m 64.539776,29.902413 v -7.176514 c 0,-1.321197 1.070147,-2.392171 2.390322,-2.392171 h 1.194887 c 1.320175,0 2.390321,1.070974 2.390321,2.392171 v 7.176514 c 0,1.321196 -1.070146,2.392171 -2.390321,2.392171 h -1.194887 c -1.320175,0 -2.390322,-1.070975 -2.390322,-2.392171 z m 0,0"
     fill="#545c60"
     id="path8-2"
     style="stroke-width:0.140114" />
  <path
     d="m 64.539776,47.84397 v -3.587982 c 0,-1.321198 1.070147,-2.392172 2.390322,-2.392172 h 1.194887 c 1.320175,0 2.390321,1.070974 2.390321,2.392172 v 3.587982 c 0,1.321197 -1.070146,2.392172 -2.390321,2.392172 h -1.194887 c -1.320175,0 -2.390322,-1.070975 -2.390322,-2.392172 z m 0,0"
     fill="#7f8e94"
     id="path10-5"
     style="stroke-width:0.140114" />
  <path
     d="M 64.539776,29.902413 V 26.31443 c 0,-1.321198 1.070147,-2.392171 2.390322,-2.392171 h 1.194887 c 1.320175,0 2.390321,1.070973 2.390321,2.392171 v 3.587983 c 0,1.321196 -1.070146,2.392171 -2.390321,2.392171 h -1.194887 c -1.320175,0 -2.390322,-1.070975 -2.390322,-2.392171 z m 0,0"
     fill="#7f8e94"
     id="path12-9"
     style="stroke-width:0.140114" />
  <path
     d="m 65.734663,23.922259 c 0,0.660325 -0.535073,1.195811 -1.194887,1.195811 H 56.173377 C 54.193934,25.11587 52.58981,23.510514 52.587621,21.530087 V 8.3728726 c -0.0049,-3.301077 -2.677553,-5.9752269 -5.97553,-5.9807019 -3.299071,0.00383 -5.972247,2.6790782 -5.976078,5.9807019 V 53.824672 c -0.0093,1.977688 -1.609049,3.579223 -3.585208,3.58853 -1.979443,-0.0022 -3.583568,-1.607556 -3.585757,-3.58853 V 8.3728726 c -0.0055,-3.301077 -2.677553,-5.9752269 -5.976077,-5.9807019 -3.298524,0.00383 -5.9717,2.6790782 -5.97553,5.9807019 V 53.824672 c -0.0093,1.977688 -1.609597,3.579223 -3.585756,3.58853 -1.979442,-0.0022 -3.583568,-1.607556 -3.585755,-3.58853 V 8.3728726 c 0,-3.3032664 -2.675366,-5.9807019 -5.975531,-5.9807019 -3.3007118,0 -5.9760775,2.6774355 -5.9760775,5.9807019 V 63.393357 c 0.00383,3.301623 2.677007,5.976869 5.9760775,5.980702 h 38.245692 c 3.298523,-0.0038 5.9717,-2.679079 5.97553,-5.980702 V 49.04033 c 0.0022,-1.980973 1.606313,-3.586341 3.585756,-3.58853 h 8.366399 c 0.659814,0 1.194887,0.535487 1.194887,1.196358 0,0.660325 -0.535073,1.195812 -1.194887,1.195812 h -8.366399 c -0.659814,5.61e-4 -1.194341,0.536035 -1.194887,1.19636 v 14.353027 c -0.0055,4.622273 -3.748247,8.367398 -8.366399,8.372873 H 8.366399 C 3.7477002,71.760755 0.0054711,68.01563 0,63.393357 V 8.3728726 C 0,3.7484095 3.7455119,-1.04e-6 8.366399,-1.04e-6 c 4.62034,0 8.365851,3.74841054 8.365851,8.37287364 V 53.824672 c 0.0011,0.660325 0.535621,1.195264 1.195435,1.19636 0.311306,0.0027 0.610574,-0.121553 0.829417,-0.343851 0.234164,-0.221203 0.366564,-0.530012 0.366018,-0.852509 V 8.3728726 C 19.12805,3.7505989 22.87082,0.00547394 27.488971,-1.04e-6 32.10767,0.00493289 35.850446,3.7505989 35.85537,8.3728726 V 53.824672 c 5.6e-4,0.660325 0.535073,1.195264 1.195435,1.19636 0.311305,0.0027 0.610574,-0.121553 0.82887,-0.343851 0.234163,-0.221203 0.366564,-0.530012 0.366017,-0.852509 V 8.3728726 c 0.0055,-4.6222737 3.7477,-8.36739866 8.366399,-8.37287364 4.618152,0.00493393 8.360927,3.75059994 8.366399,8.37287364 V 21.530087 c 5.6e-4,0.660325 0.535073,1.195265 1.194887,1.195812 h 8.366399 c 0.659814,0 1.194887,0.535488 1.194887,1.19636 z m 0,0"
     id="path14-7"
     style="stroke-width:0.140114" />
  <path
     d="m 65.734663,28.706601 c 0,0.660325 -0.535073,1.195812 -1.194887,1.195812 h -8.366399 c -4.618152,-0.0049 -8.360928,-3.7506 -8.366399,-8.372326 V 8.3728712 C 47.806418,7.7125476 47.271905,7.1770594 46.612091,7.1765127 46.300238,7.1737794 46.000969,7.2975173 45.782673,7.519816 45.54851,7.7415667 45.416109,8.0503745 45.416656,8.3728726 V 53.824672 c -0.0049,4.621725 -3.7477,8.367398 -8.365851,8.372873 -4.6187,-0.0055 -8.361475,-3.7506 -8.3664,-8.372873 V 8.3728726 c -5.6e-4,-0.660325 -0.53562,-1.1958118 -1.195433,-1.1963599 -0.311306,-0.00273 -0.610575,0.1210046 -0.828871,0.3433033 -0.234164,0.2217507 -0.366564,0.5305585 -0.366016,0.8530566 V 53.824672 c -0.0055,4.621725 -3.748248,8.367398 -8.3664,8.372873 -4.618698,-0.0055 -8.3609277,-3.7506 -8.3663988,-8.372873 V 8.3728726 C 9.5607399,7.7125476 9.026213,7.1770608 8.366399,7.1765127 8.0545464,7.1737794 7.7552776,7.2975173 7.5369809,7.519816 7.302818,7.7415667 7.1704174,8.0503745 7.1709647,8.3728726 V 63.393357 c 5.462e-4,0.660325 0.5356202,1.195812 1.1954343,1.196359 h 38.245692 c 0.659814,-5.46e-4 1.194339,-0.536034 1.194887,-1.196359 V 49.04033 c 0.0055,-4.621725 3.748247,-8.367397 8.366399,-8.372873 h 8.366399 c 0.659814,0 1.194887,0.535488 1.194887,1.196359 0,0.660325 -0.535073,1.195812 -1.194887,1.195812 h -8.366399 c -3.298524,0.0038 -5.9717,2.679079 -5.976077,5.980702 v 14.353027 c -0.0022,1.980974 -1.605768,3.58634 -3.585209,3.588531 H 8.366399 C 6.3869566,66.979697 4.7828316,65.374331 4.780643,63.393357 V 8.3728726 c 0.0093,-1.9782375 1.6090493,-3.579223 3.585756,-3.5885316 1.979442,0.00219 3.58302,1.6075566 3.585209,3.5885316 V 53.824672 c 0.0055,3.300528 2.678102,5.975227 5.976077,5.980702 3.298523,-0.0038 5.972248,-2.679626 5.976078,-5.980702 V 8.3728726 c 0.0093,-1.9782375 1.609049,-3.579223 3.585209,-3.5885316 1.979442,0.00219 3.583566,1.6075566 3.585756,3.5885316 V 53.824672 c 0.0049,3.300528 2.677554,5.975227 5.976077,5.980702 3.298523,-0.0038 5.971699,-2.679626 5.97553,-5.980702 V 8.3728726 c 0.0093,-1.9782375 1.609049,-3.579223 3.585756,-3.5885316 1.979441,0.00219 3.58302,1.6075566 3.585209,3.5885316 V 21.530087 c 0.0044,3.301076 2.677554,5.976322 5.976077,5.980155 h 8.366399 c 0.659814,0 1.194887,0.535487 1.194887,1.196359 z m 0,0"
     id="path16-4"
     style="stroke-width:0.140114" />
  <path
     d="m 71.71074,40.667457 v 7.176513 c -0.0022,1.980974 -1.606313,3.586341 -3.585755,3.588531 h -1.194887 c -1.979444,-0.0022 -3.583568,-1.607557 -3.585757,-3.588531 v -7.176513 c 0.0022,-1.980974 1.606313,-3.585793 3.585757,-3.587983 h 1.194887 c 1.979442,0.0022 3.583566,1.607009 3.585755,3.587983 z m -5.976077,7.176513 c 5.6e-4,0.660325 0.53562,1.195812 1.195435,1.19636 h 1.194887 c 0.659814,-5.6e-4 1.194887,-0.536035 1.195433,-1.19636 v -7.176513 c -5.6e-4,-0.660324 -0.535619,-1.195264 -1.195433,-1.195812 h -1.194887 c -0.659815,5.6e-4 -1.194887,0.535488 -1.195435,1.195812 z m 0,0"
     id="path18-8"
     style="stroke-width:0.140114" />
  <path
     d="m 71.71074,22.725899 v 7.176514 c -0.0022,1.980973 -1.606313,3.58634 -3.585755,3.58853 h -1.194887 c -1.979444,-0.0022 -3.583568,-1.607557 -3.585757,-3.58853 v -7.176514 c 0.0022,-1.980974 1.606313,-3.585793 3.585757,-3.587982 h 1.194887 c 1.979442,0.0022 3.583566,1.607008 3.585755,3.587982 z m -5.976077,7.176514 c 5.6e-4,0.660325 0.53562,1.195811 1.195435,1.196359 h 1.194887 c 0.659814,-5.6e-4 1.194887,-0.536034 1.195433,-1.196359 v -7.176514 c -5.6e-4,-0.660324 -0.535619,-1.195264 -1.195433,-1.195812 h -1.194887 c -0.659815,5.61e-4 -1.194887,0.535488 -1.195435,1.195812 z m 0,0"
     id="path20-2"
     style="stroke-width:0.140114" />
</svg>
