<?xml version="1.0" encoding="UTF-8" standalone="no"?>
<svg
   xmlns:dc="http://purl.org/dc/elements/1.1/"
   xmlns:cc="http://creativecommons.org/ns#"
   xmlns:rdf="http://www.w3.org/1999/02/22-rdf-syntax-ns#"
   xmlns:svg="http://www.w3.org/2000/svg"
   xmlns="http://www.w3.org/2000/svg"
   xmlns:sodipodi="http://sodipodi.sourceforge.net/DTD/sodipodi-0.dtd"
   xmlns:inkscape="http://www.inkscape.org/namespaces/inkscape"
   version="1.1"
   id="Capa_1"
   x="0px"
   y="0px"
   viewBox="0 0 49.999999 34.999999"
   xml:space="preserve"
   sodipodi:docname="heat_lines.svg"
   width="50"
   height="35"
   inkscape:version="1.0.1 (3bc2e813f5, 2020-09-07)"
   inkscape:export-filename="C:\Users\seblo\Documents\GitHub\frogHop_Brewing\embedded\images\heat_lines.png"
   inkscape:export-xdpi="96"
   inkscape:export-ydpi="96"><metadata
   id="metadata73"><rdf:RDF><cc:Work
       rdf:about=""><dc:format>image/svg+xml</dc:format><dc:type
         rdf:resource="http://purl.org/dc/dcmitype/StillImage" /><dc:title></dc:title></cc:Work></rdf:RDF></metadata><defs
   id="defs71" /><sodipodi:namedview
   pagecolor="#ffffff"
   bordercolor="#666666"
   borderopacity="1"
   objecttolerance="10"
   gridtolerance="10"
   guidetolerance="10"
   inkscape:pageopacity="0"
   inkscape:pageshadow="2"
   inkscape:window-width="1920"
   inkscape:window-height="1001"
   id="namedview69"
   showgrid="false"
   fit-margin-top="0"
   fit-margin-left="0"
   fit-margin-right="0"
   fit-margin-bottom="0"
   inkscape:zoom="9.1704878"
   inkscape:cx="27.723122"
   inkscape:cy="-4.7656231"
   inkscape:window-x="-9"
   inkscape:window-y="-9"
   inkscape:window-maximized="1"
   inkscape:current-layer="Capa_1" />





















<g
   id="g916"
   transform="matrix(0.31204766,0,0,0.30868124,-11.325423,-11.249825)"
   style="fill:#ff5722;fill-opacity:1"><g
     id="g6"
     transform="matrix(0.74999995,0,0,0.74999995,-75.793835,37.151153)"
     style="fill:#ff5722;fill-opacity:1"><g
       id="g4"
       style="fill:#ff5722;fill-opacity:1"><path
         d="m 181.178,71.178 c -8.768,-17.728 -15.68,-31.723 -0.427,-54.613 3.264,-4.907 1.92,-11.52 -2.965,-14.784 -4.843,-3.243 -11.499,-1.941 -14.784,2.965 -22.101,33.109 -10.368,56.832 -0.939,75.883 8.811,17.835 15.189,30.72 0.939,52.117 -3.285,4.907 -1.941,11.52 2.944,14.784 1.813,1.216 3.883,1.792 5.931,1.792 3.435,0 6.805,-1.664 8.853,-4.757 21.099,-31.616 9.664,-54.784 0.448,-73.387 z"
         id="path2"
         style="fill:#ff5722;fill-opacity:1" /></g></g><g
     id="g12"
     transform="matrix(0.74999995,0,0,0.74999995,-75.793835,37.151153)"
     style="fill:#ff5722;fill-opacity:1"><g
       id="g10"
       style="fill:#ff5722;fill-opacity:1"><path
         d="m 266.17,71.178 c -8.789,-17.728 -15.701,-31.723 -0.448,-54.613 3.264,-4.907 1.92,-11.52 -2.965,-14.784 -4.843,-3.243 -11.52,-1.941 -14.784,2.965 -22.08,33.131 -10.347,56.853 -0.939,75.904 8.811,17.835 15.189,30.72 0.939,52.096 -3.264,4.907 -1.92,11.52 2.965,14.784 1.813,1.216 3.861,1.792 5.909,1.792 3.435,0 6.805,-1.664 8.875,-4.757 21.099,-31.616 9.664,-54.784 0.448,-73.387 z"
         id="path8"
         style="fill:#ff5722;fill-opacity:1" /></g></g><g
     id="g18"
     transform="matrix(0.74999995,0,0,0.74999995,-75.793835,37.151153)"
     style="fill:#ff5722;fill-opacity:1"><g
       id="g16"
       style="fill:#ff5722;fill-opacity:1"><path
         d="M 351.141,71.178 C 342.352,53.45 335.44,39.455 350.693,16.565 c 3.264,-4.907 1.92,-11.52 -2.965,-14.784 -4.843,-3.243 -11.52,-1.941 -14.784,2.965 -22.08,33.131 -10.347,56.853 -0.939,75.904 8.811,17.835 15.189,30.72 0.939,52.096 -3.264,4.907 -1.92,11.52 2.965,14.784 1.813,1.216 3.861,1.792 5.909,1.792 3.456,0 6.827,-1.664 8.875,-4.757 21.099,-31.616 9.664,-54.784 0.448,-73.387 z"
         id="path14"
         style="fill:#ff5722;fill-opacity:1" /></g></g><g
     id="g38"
     transform="matrix(0.74999995,0,0,0.74999995,-75.793835,37.151153)"
     style="fill:#ff5722;fill-opacity:1" /><g
     id="g40"
     transform="matrix(0.74999995,0,0,0.74999995,-75.793835,37.151153)"
     style="fill:#ff5722;fill-opacity:1" /><g
     id="g42"
     transform="matrix(0.74999995,0,0,0.74999995,-75.793835,37.151153)"
     style="fill:#ff5722;fill-opacity:1" /><g
     id="g44"
     transform="matrix(0.74999995,0,0,0.74999995,-75.793835,37.151153)"
     style="fill:#ff5722;fill-opacity:1" /><g
     id="g46"
     transform="matrix(0.74999995,0,0,0.74999995,-75.793835,37.151153)"
     style="fill:#ff5722;fill-opacity:1" /><g
     id="g48"
     transform="matrix(0.74999995,0,0,0.74999995,-75.793835,37.151153)"
     style="fill:#ff5722;fill-opacity:1" /><g
     id="g50"
     transform="matrix(0.74999995,0,0,0.74999995,-75.793835,37.151153)"
     style="fill:#ff5722;fill-opacity:1" /><g
     id="g52"
     transform="matrix(0.74999995,0,0,0.74999995,-75.793835,37.151153)"
     style="fill:#ff5722;fill-opacity:1" /><g
     id="g54"
     transform="matrix(0.74999995,0,0,0.74999995,-75.793835,37.151153)"
     style="fill:#ff5722;fill-opacity:1" /><g
     id="g56"
     transform="matrix(0.74999995,0,0,0.74999995,-75.793835,37.151153)"
     style="fill:#ff5722;fill-opacity:1" /><g
     id="g58"
     transform="matrix(0.74999995,0,0,0.74999995,-75.793835,37.151153)"
     style="fill:#ff5722;fill-opacity:1" /><g
     id="g60"
     transform="matrix(0.74999995,0,0,0.74999995,-75.793835,37.151153)"
     style="fill:#ff5722;fill-opacity:1" /><g
     id="g62"
     transform="matrix(0.74999995,0,0,0.74999995,-75.793835,37.151153)"
     style="fill:#ff5722;fill-opacity:1" /><g
     id="g64"
     transform="matrix(0.74999995,0,0,0.74999995,-75.793835,37.151153)"
     style="fill:#ff5722;fill-opacity:1" /><g
     id="g66"
     transform="matrix(0.74999995,0,0,0.74999995,-75.793835,37.151153)"
     style="fill:#ff5722;fill-opacity:1" /></g></svg>
