<?xml version="1.0" encoding="UTF-8" standalone="no"?>
<svg
   xmlns:dc="http://purl.org/dc/elements/1.1/"
   xmlns:cc="http://creativecommons.org/ns#"
   xmlns:rdf="http://www.w3.org/1999/02/22-rdf-syntax-ns#"
   xmlns:svg="http://www.w3.org/2000/svg"
   xmlns="http://www.w3.org/2000/svg"
   xmlns:sodipodi="http://sodipodi.sourceforge.net/DTD/sodipodi-0.dtd"
   xmlns:inkscape="http://www.inkscape.org/namespaces/inkscape"
   version="1.1"
   id="Capa_1"
   x="0px"
   y="0px"
   viewBox="0 0 250 250"
   xml:space="preserve"
   sodipodi:docname="pan.svg"
   width="250"
   height="250"
   inkscape:version="1.0.1 (3bc2e813f5, 2020-09-07)"
   inkscape:export-filename="C:\TouchGFXProjects\frogHop\images\pan.png"
   inkscape:export-xdpi="96"
   inkscape:export-ydpi="96"><metadata
   id="metadata59"><rdf:RDF><cc:Work
       rdf:about=""><dc:format>image/svg+xml</dc:format><dc:type
         rdf:resource="http://purl.org/dc/dcmitype/StillImage" /><dc:title /></cc:Work></rdf:RDF></metadata><defs
   id="defs57">
	
	
	
</defs><sodipodi:namedview
   pagecolor="#ffffff"
   bordercolor="#666666"
   borderopacity="1"
   objecttolerance="10"
   gridtolerance="10"
   guidetolerance="10"
   inkscape:pageopacity="0"
   inkscape:pageshadow="2"
   inkscape:window-width="1920"
   inkscape:window-height="1001"
   id="namedview55"
   showgrid="false"
   units="px"
   width="250mm"
   inkscape:zoom="1.5412254"
   inkscape:cx="-108.0095"
   inkscape:cy="150.89893"
   inkscape:window-x="-9"
   inkscape:window-y="-9"
   inkscape:window-maximized="1"
   inkscape:current-layer="Capa_1"
   inkscape:document-rotation="0" />






















<path
   style="fill:#aaaaad;stroke-width:0.742709;fill-opacity:1"
   d="m 59.24723,240.60384 c -16.316145,0 -26.003856,-13.15537 -26.003856,-34.61939 V 70.276473 H 217.30988 V 205.98445 c 0,22.15641 -9.17783,34.61939 -25.49397,34.61939 z"
   id="path12" /><path
   style="fill:#39454c;stroke-width:0.742709"
   d="m 50.579278,176.21178 c 3.059277,0 5.098795,-2.76955 5.098795,-6.92387 V 95.202433 c 0,-4.154331 -2.039518,-6.923884 -5.098795,-6.923884 -3.059277,0 -5.098795,2.769553 -5.098795,6.923884 V 169.9803 c 0,3.46193 2.549397,6.23148 5.098795,6.23148 z"
   id="path18" /><path
   style="fill:#39454c;stroke-width:0.742709"
   d="M 241.27422,89.663325 H 221.8988 v -20.07924 c 0,-4.154326 -2.03952,-6.923876 -5.0988,-6.923876 H 32.733494 c -3.059277,0 -5.098795,2.76955 -5.098795,6.923876 v 20.07924 H 8.7691566 c -3.0592772,0 -5.0987953,2.769554 -5.0987953,6.923884 0,4.154321 2.0395181,6.923871 5.0987953,6.923871 H 28.144579 v 102.47337 c 0,30.46507 16.316145,41.54327 31.61253,41.54327 H 191.30603 c 22.4347,0 30.59277,-21.46402 30.59277,-41.54327 V 103.51108 h 19.37542 c 3.05928,0 5.0988,-2.76955 5.0988,-6.923871 0,-4.15433 -2.5494,-6.923884 -5.0988,-6.923884 z M 212.21109,205.98445 c 0,12.46298 -3.56916,27.69551 -20.39518,27.69551 H 59.24723 c -7.648193,0 -20.905061,-3.46194 -20.905061,-27.69551 V 77.200349 H 212.72097 V 205.98445 Z"
   id="path20" /><g
   id="g24"
   transform="matrix(0.63734941,0,0,0.7563742,3.6703613,-18.413453)">
</g><g
   id="g26"
   transform="matrix(0.63734941,0,0,0.7563742,3.6703613,-18.413453)">
</g><g
   id="g28"
   transform="matrix(0.63734941,0,0,0.7563742,3.6703613,-18.413453)">
</g><g
   id="g30"
   transform="matrix(0.63734941,0,0,0.7563742,3.6703613,-18.413453)">
</g><g
   id="g32"
   transform="matrix(0.63734941,0,0,0.7563742,3.6703613,-18.413453)">
</g><g
   id="g34"
   transform="matrix(0.63734941,0,0,0.7563742,3.6703613,-18.413453)">
</g><g
   id="g36"
   transform="matrix(0.63734941,0,0,0.7563742,3.6703613,-18.413453)">
</g><g
   id="g38"
   transform="matrix(0.63734941,0,0,0.7563742,3.6703613,-18.413453)">
</g><g
   id="g40"
   transform="matrix(0.63734941,0,0,0.7563742,3.6703613,-18.413453)">
</g><g
   id="g42"
   transform="matrix(0.63734941,0,0,0.7563742,3.6703613,-18.413453)">
</g><g
   id="g44"
   transform="matrix(0.63734941,0,0,0.7563742,3.6703613,-18.413453)">
</g><g
   id="g46"
   transform="matrix(0.63734941,0,0,0.7563742,3.6703613,-18.413453)">
</g><g
   id="g48"
   transform="matrix(0.63734941,0,0,0.7563742,3.6703613,-18.413453)">
</g><g
   id="g50"
   transform="matrix(0.63734941,0,0,0.7563742,3.6703613,-18.413453)">
</g><g
   id="g52"
   transform="matrix(0.63734941,0,0,0.7563742,3.6703613,-18.413453)">
</g>
</svg>
