<svg height="512pt" viewBox="0 -59 512 512" width="512pt" xmlns="http://www.w3.org/2000/svg"><path d="m492 127h-58.667969v-28.332031c0-11.046875-8.953125-20-20-20h-97.332031v-38.667969h19.667969c11.046875 0 20-8.953125 20-20s-8.953125-20-20-20h-197.335938c-11.046875 0-20 8.953125-20 20s8.953125 20 20 20h19.667969v38.667969h-20.332031c-75.910157 0-137.667969 61.757812-137.667969 137.667969 0 75.90625 61.757812 137.664062 137.667969 137.664062h20.332031v19.335938c0 11.042968 8.953125 20 20 20s20-8.957032 20-20v-19.335938h116.667969v19.335938c0 11.042968 8.953125 20 20 20s20-8.957032 20-20v-19.335938h58.664062c11.046875 0 20-8.953125 20-20v-28.332031h58.667969c11.046875 0 20-8.953125 20-20v-138.667969c0-11.046875-8.953125-20-20-20zm-294-87h78v38.667969h-78zm195.332031 274h-255.664062c-53.855469 0-97.667969-43.8125-97.667969-97.664062 0-53.855469 43.8125-97.667969 97.667969-97.667969h255.664062zm78.667969-48.332031h-38.667969v-98.667969h38.667969zm0 0"/></svg>